<svg id="Layer_1" fill="#f7f9fa" data-name="Layer 1" xmlns="http://www.w3.org/2000/svg" viewBox="0 0 20 20"><defs><style>.cls-1{fill-rule:evenodd;}</style></defs><path class="cls-1" d="M16.46,18.14a.8.8,0,0,1,0-1.59H18l-.12-.9H9.8l-.12.9h1.54a.8.8,0,0,1,0,1.59H8.47A.79.79,0,0,1,7.75,17l.77-1.76,0-1.17H.79A.79.79,0,0,1,0,13.3V2.66a.79.79,0,0,1,.79-.8H13.7a.79.79,0,0,1,.79.8v5.9h1.28l3.42,2.49v4.37l.74,1.6a.79.79,0,0,1-.72,1.12Zm1.15-3.42V11.63H16a.79.79,0,0,1-.79-.79v-.7H10.07v4.58ZM8.49,12.51v-.89H1.58v.89Zm0-1.9V9.35a.8.8,0,0,1,.79-.79h3.63V3.45H1.58v7.16Z"/><path class="cls-1" d="M13.84,18.14a.8.8,0,1,1,.79-.8A.79.79,0,0,1,13.84,18.14Z"/></svg>