<svg id="Layer_1" fill="#f7f9fa" data-name="Layer 1" xmlns="http://www.w3.org/2000/svg" viewBox="0 0 20 20"><path d="M10,19.19A.74.74,0,0,1,9.51,19L3,13.68a.77.77,0,0,1,.5-1.35.8.8,0,0,1,.47.15l6,4.94,6-4.93a.76.76,0,0,1,1,.09.77.77,0,0,1,0,1.09L10.49,19A.74.74,0,0,1,10,19.19Zm0-3.09a.8.8,0,0,1-.49-.18L3,10.59A.76.76,0,0,1,2.76,10,.77.77,0,0,1,3,9.48a.78.78,0,0,1,.56-.24A.8.8,0,0,1,4,9.38l6,4.94L16,9.4a.74.74,0,0,1,.49-.18A.77.77,0,0,1,17,10.59l-6.49,5.33A.8.8,0,0,1,10,16.1ZM10,13a.8.8,0,0,1-.49-.18L3,7.51a.78.78,0,0,1-.11-1.09l.1-.1L9.51,1a.76.76,0,0,1,1,0L17,6.32a.75.75,0,0,1,.28.52.79.79,0,0,1-.17.57l-.1.1-6.5,5.33A.8.8,0,0,1,10,13Zm0-1.78,5.27-4.33L10,2.58,4.73,6.91Z"/></svg>