<svg id="Layer_1" fill="#f7f9fa" data-name="Layer 1" xmlns="http://www.w3.org/2000/svg" viewBox="0 0 20 20"><path d="M10,14.29a2.25,2.25,0,0,1-1.59-3.83C9,9.84,14.89,5.84,16.06,5a.78.78,0,0,1,.39-.12.72.72,0,0,1,.48.2A.69.69,0,0,1,17,6c-.8,1.17-4.8,7-5.42,7.65A2.26,2.26,0,0,1,10,14.29Zm3.35-5.73c-1.35.94-3.67,2.56-4,2.87a.85.85,0,0,0-.26.62.88.88,0,0,0,1.5.62c.31-.3,1.93-2.62,2.87-4Z"/><path d="M2.34,18a.78.78,0,0,1-.65-.35A10,10,0,0,1,0,12.05,10,10,0,0,1,14.11,2.93a.77.77,0,0,1,.41.44.78.78,0,0,1,0,.6.77.77,0,0,1-.71.46.88.88,0,0,1-.32-.07,8.12,8.12,0,0,0-2.69-.71V4.82a.78.78,0,1,1-1.56,0V3.65a8.49,8.49,0,0,0-6.42,4l1.09.53a.78.78,0,0,1-.34,1.48.64.64,0,0,1-.33-.08L2.11,9.06a8.43,8.43,0,0,0-.55,3,8.32,8.32,0,0,0,1.08,4.1l1-.47a.83.83,0,0,1,.34-.07.77.77,0,0,1,.71.43.79.79,0,0,1-.36,1.05l-1.6.78A.85.85,0,0,1,2.34,18Z"/><path d="M17.66,18a.81.81,0,0,1-.34-.08l-1.64-.78a.78.78,0,0,1-.37-1A.8.8,0,0,1,16,15.6a.76.76,0,0,1,.33.08l1,.48a8.5,8.5,0,0,0,1.08-4.11,8.27,8.27,0,0,0-.75-3.47.8.8,0,0,1,.39-1,.79.79,0,0,1,1,.39,10,10,0,0,1-.81,9.66A.78.78,0,0,1,17.66,18Z"/></svg>