<svg id="Layer_1" fill="#f7f9fa" data-name="Layer 1" xmlns="http://www.w3.org/2000/svg" viewBox="0 0 20 20"><path d="M3.5,18.44a.75.75,0,0,1-.75-.75V16.41A7.2,7.2,0,0,1,6.5,10.14l.6-.33-.48-.49a4.56,4.56,0,0,1-1.3-3.17A4.64,4.64,0,0,1,10,1.56a4.69,4.69,0,0,1,2.7.84,4.38,4.38,0,0,1,.87.79,2,2,0,0,1,.23.28,4.71,4.71,0,0,1,.52.92,4.48,4.48,0,0,1-.53,4.44,4.63,4.63,0,0,1-.41.49l-.48.49.6.34a6.42,6.42,0,0,1,1,.66,6,6,0,0,1,.6.53,7,7,0,0,1,2.15,5.07v1.28a.75.75,0,0,1-.75.75Zm12.24-1.5v-.53a5.62,5.62,0,0,0-3.05-5,5.23,5.23,0,0,0-1.8-.59,5.68,5.68,0,0,0-6.63,5.58v.53ZM10,3.07A3.18,3.18,0,0,0,6.82,6.15a3.18,3.18,0,0,0,4.77,2.67,3.14,3.14,0,0,0,1.09-1.05,2.87,2.87,0,0,0,0-3.24A3.2,3.2,0,0,0,10,3.07Z"/></svg>