<?xml version="1.0" encoding="utf-8"?>
<!-- Generator: Adobe Illustrator 24.1.1, SVG Export Plug-In . SVG Version: 6.00 Build 0)  -->
<svg version="1.1" id="Layer_1" xmlns="http://www.w3.org/2000/svg" xmlns:xlink="http://www.w3.org/1999/xlink" x="0px" y="0px"
	 viewBox="0 0 18 18" style="enable-background:new 0 0 18 18;" xml:space="preserve">
<style type="text/css">
	.st0{fill:#FFFFFF;}
</style>
<g>
	<path class="st0" d="M13,5H9.9V2.2c0-0.5-0.4-0.9-0.9-0.9S8.1,1.7,8.1,2.2V5H5c0,0,0,0-0.1,0C3.7,5,2.7,6,2.7,7.3V15
		c0,1,0.8,1.8,1.8,1.8h9c1,0,1.8-0.8,1.8-1.8V7.3C15.3,6,14.3,5,13,5z M7.2,14H5.4v-0.9h1.8V14z M6.3,10.6c-0.6,0-1.1-0.5-1.1-1.1
		s0.5-1.1,1.1-1.1s1.1,0.5,1.1,1.1S6.9,10.6,6.3,10.6z M9.9,14H8.1v-0.9h1.8C9.9,13.1,9.9,14,9.9,14z M12.6,14h-1.8v-0.9h1.8V14z
		 M11.7,10.6L11.7,10.6c-0.6,0-1.1-0.5-1.1-1.1s0.5-1.1,1.1-1.1s1.1,0.5,1.1,1.1S12.3,10.6,11.7,10.6z"/>
	<path class="st0" d="M0,9.5v3.6C0,13.6,0.4,14,0.9,14h0.9V8.6H0.9C0.4,8.6,0,9,0,9.5z"/>
	<path class="st0" d="M17.1,8.6h-0.9V14h0.9c0.5,0,0.9-0.4,0.9-0.9V9.5C18,9,17.6,8.6,17.1,8.6z"/>
</g>
</svg>
