<svg id="Layer_1" fill="#f7f9fa" data-name="Layer 1" xmlns="http://www.w3.org/2000/svg" viewBox="0 0 20 20"><path d="M14.62,20h2.93a2,2,0,0,0,2-2V2a2,2,0,0,0-2-2H2.45a2,2,0,0,0-2,2V18a2,2,0,0,0,2,2h5m1.73,0h0Zm8.24-1.83H2.57a.52.52,0,0,1-.52-.52V2.16a.52.52,0,0,1,.52-.52H17.43a.52.52,0,0,1,.52.52V17.65A.52.52,0,0,1,17.43,18.17Z"/><path d="M6.26,4.38H5A.63.63,0,0,0,4.38,5V6.26A.63.63,0,0,0,5,6.88H6.26a.62.62,0,0,0,.62-.62V5A.63.63,0,0,0,6.26,4.38Z"/><path d="M6.26,8.75H5a.63.63,0,0,0-.63.63v1.24a.63.63,0,0,0,.63.63H6.26a.63.63,0,0,0,.62-.63V9.38A.63.63,0,0,0,6.26,8.75Z"/><path d="M6.26,13.12H5a.63.63,0,0,0-.63.62V15a.63.63,0,0,0,.63.63H6.26A.63.63,0,0,0,6.88,15V13.74A.62.62,0,0,0,6.26,13.12Z"/><rect x="8.13" y="4.81" width="7.49" height="1.64"/><rect x="8.13" y="9.18" width="7.49" height="1.64"/><rect x="8.13" y="13.55" width="7.49" height="1.64"/></svg>