<svg id="Layer_1" fill="#f7f9fa" data-name="Layer 1" xmlns="http://www.w3.org/2000/svg" viewBox="0 0 20 20"><path d="M18.08.61H1.92A1.92,1.92,0,0,0,0,2.53V14a1.92,1.92,0,0,0,1.92,1.92H6.63L6,17.85H4.26a.77.77,0,1,0,0,1.54H15.74a.77.77,0,1,0,0-1.54H14l-.63-1.91h4.71A1.92,1.92,0,0,0,20,14V2.53A1.92,1.92,0,0,0,18.08.61ZM7.62,17.85l.64-1.91h3.48l.64,1.91ZM18.46,14a.38.38,0,0,1-.38.38H1.92A.38.38,0,0,1,1.54,14v-.38H18.46Zm0-1.92H1.54V2.53a.38.38,0,0,1,.38-.38H18.08a.38.38,0,0,1,.38.38Z"/><path d="M5,6.22A1,1,0,0,1,6,6.89l1.2-.56A2.16,2.16,0,0,0,5,5,2.37,2.37,0,1,0,5,9.74,2.19,2.19,0,0,0,7.16,8.4L6,7.85A1,1,0,0,1,5,8.52,1.08,1.08,0,0,1,4,7.37,1.08,1.08,0,0,1,5,6.22Z"/><rect x="7.59" y="5.08" width="1.39" height="4.58"/><path d="M12.16,5.08H9.72V9.66H11.1V8.19h1.06a1.51,1.51,0,0,0,1.65-1.54A1.52,1.52,0,0,0,12.16,5.08ZM12,7H11.1v-.8H12a.4.4,0,0,1,.42.41A.39.39,0,0,1,12,7Z"/><polygon points="15.65 5.08 14.26 5.08 14.26 9.66 17.38 9.66 17.38 8.45 15.65 8.45 15.65 5.08"/></svg>