<svg id="Layer_1" fill="#f7f9fa" data-name="Layer 1" xmlns="http://www.w3.org/2000/svg" viewBox="0 0 20 20"><path d="M.75,18.44A.75.75,0,0,1,0,17.69V16.41a7.2,7.2,0,0,1,3.75-6.27l.6-.33-.48-.49a4.56,4.56,0,0,1-1.3-3.17A4.64,4.64,0,0,1,7.25,1.56,4.69,4.69,0,0,1,10,2.4a4.38,4.38,0,0,1,.87.79,2,2,0,0,1,.23.28,4.71,4.71,0,0,1,.52.92A4.48,4.48,0,0,1,11,8.83a4.63,4.63,0,0,1-.41.49l-.48.49.6.34a6.42,6.42,0,0,1,1,.66,6,6,0,0,1,.6.53,7,7,0,0,1,2.15,5.07v1.28a.75.75,0,0,1-.75.75ZM13,16.94v-.53a5.62,5.62,0,0,0-3.05-5,5.23,5.23,0,0,0-1.8-.59,5.68,5.68,0,0,0-6.63,5.58v.53ZM7.25,3.07A3.18,3.18,0,0,0,4.07,6.15,3.18,3.18,0,0,0,8.84,8.82,3.14,3.14,0,0,0,9.93,7.77a2.87,2.87,0,0,0,0-3.24A3.2,3.2,0,0,0,7.25,3.07Z"/><path d="M15.49,18.44V17.05h3.12v-.48a5.26,5.26,0,0,0-5.3-5.21l-.25-.19-.42-.35a7.88,7.88,0,0,0-1-.66l-.21-.11.09-.1a1.93,1.93,0,0,0,.27-.31l.05-.07.08,0a2.94,2.94,0,0,0,4.33-2.49,3,3,0,0,0-3.71-2.74l-.08,0,0-.07a4.52,4.52,0,0,0-.48-.85l-.15-.18-.09-.11.13,0a4.39,4.39,0,0,1,1.48-.26,4.29,4.29,0,0,1,4.32,4.24A4.18,4.18,0,0,1,16.44,10l-.45.46.56.31A6.6,6.6,0,0,1,20,16.57v1.18a.69.69,0,0,1-.69.69Z"/></svg>