<svg id="Layer_1" fill="#f7f9fa" data-name="Layer 1" xmlns="http://www.w3.org/2000/svg" viewBox="0 0 20 20"><path d="M1.53,10.29V10A8.51,8.51,0,0,1,10,1.53h5.91V3.14H10A6.87,6.87,0,0,0,3.14,10v.29Z"/><path d="M4.09,18.47V16.86H10A6.87,6.87,0,0,0,16.86,10V9.71h1.61V10A8.51,8.51,0,0,1,10,18.47Z"/><path d="M9.16,15.2a.6.6,0,0,1-.6-.6v-.93l-.14-.06-.66.66a.6.6,0,0,1-.84,0L5.73,13.08a.6.6,0,0,1,0-.84l.66-.66-.06-.14H5.4a.6.6,0,0,1-.6-.6V9.16a.6.6,0,0,1,.6-.6h.93l.06-.14-.66-.66a.6.6,0,0,1,0-.84L6.92,5.73a.6.6,0,0,1,.84,0l.66.66.14-.06V5.4a.6.6,0,0,1,.6-.6h1.68a.6.6,0,0,1,.6.6v.93l.14.06.66-.66a.6.6,0,0,1,.84,0l1.19,1.19a.6.6,0,0,1,0,.84l-.66.66.06.14h.93a.6.6,0,0,1,.6.6v1.68a.6.6,0,0,1-.6.6h-.93l-.06.14.66.66a.6.6,0,0,1,0,.84l-1.19,1.19a.6.6,0,0,1-.84,0l-.66-.66-.14.06v.93a.6.6,0,0,1-.6.6ZM10.24,14v-.77a.6.6,0,0,1,.45-.58,2.66,2.66,0,0,0,.7-.29.65.65,0,0,1,.31-.08.59.59,0,0,1,.42.17l.54.54.34-.33-.55-.54a.6.6,0,0,1-.09-.73,3.08,3.08,0,0,0,.3-.7.58.58,0,0,1,.57-.45H14V9.76h-.77a.6.6,0,0,1-.58-.45,2.66,2.66,0,0,0-.29-.7.6.6,0,0,1,.09-.73L13,7.34,12.66,7l-.54.55a.59.59,0,0,1-.42.17.65.65,0,0,1-.31-.08,2.66,2.66,0,0,0-.7-.29.6.6,0,0,1-.45-.58V6H9.76v.77a.6.6,0,0,1-.45.58,2.66,2.66,0,0,0-.7.29.65.65,0,0,1-.31.08.59.59,0,0,1-.42-.17L7.34,7,7,7.34l.54.54a.6.6,0,0,1,.09.73,2.66,2.66,0,0,0-.29.7.6.6,0,0,1-.58.45H6v.48h.77a.6.6,0,0,1,.58.45,2.66,2.66,0,0,0,.29.7.6.6,0,0,1-.09.73L7,12.66l.33.34.54-.54a.56.56,0,0,1,.42-.18.65.65,0,0,1,.31.08,3.08,3.08,0,0,0,.7.3.58.58,0,0,1,.45.58V14Z"/><path d="M10,11.85A1.85,1.85,0,1,1,11.85,10,1.85,1.85,0,0,1,10,11.85Zm0-2.5a.65.65,0,1,0,.65.65A.65.65,0,0,0,10,9.35Z"/><path d="M2.85,18.47a.81.81,0,1,1,.8-.81A.81.81,0,0,1,2.85,18.47Z"/><path d="M.8,18.47a.81.81,0,1,1,.81-.81A.81.81,0,0,1,.8,18.47Z"/><path d="M17.15,3.14a.81.81,0,1,1,.81-.8A.8.8,0,0,1,17.15,3.14Z"/><path d="M19.2,3.14a.81.81,0,1,1,.8-.8A.8.8,0,0,1,19.2,3.14Z"/></svg>