<svg id="Layer_1" fill="#f7f9fa" data-name="Layer 1" xmlns="http://www.w3.org/2000/svg" viewBox="0 0 20 20"><path d="M4.26,19.39a.77.77,0,1,1,0-1.54H6l.63-1.91H1.92A1.92,1.92,0,0,1,0,14V2.53A1.92,1.92,0,0,1,1.92.61H18.08A1.92,1.92,0,0,1,20,2.53V14a1.92,1.92,0,0,1-1.92,1.92H13.37L14,17.85h1.74a.77.77,0,1,1,0,1.54Zm8.12-1.54-.64-1.91H8.26l-.64,1.91ZM1.54,14a.38.38,0,0,0,.38.38H18.08a.38.38,0,0,0,.38-.38v-.38H1.54ZM18.46,12.1V2.53a.38.38,0,0,0-.38-.38H1.92a.38.38,0,0,0-.38.38V12.1H3.48V10.57a.78.78,0,0,1,.78-.77H5a2.6,2.6,0,0,1,.1-.25L4.58,9a.75.75,0,0,1-.22-.55.77.77,0,0,1,.22-.54L6.21,6.3a.76.76,0,0,1,.54-.22.8.8,0,0,1,.55.22l.53.54.25-.11V6a.77.77,0,0,1,.77-.77h2.3a.77.77,0,0,1,.77.77v.75l.25.11.53-.54a.82.82,0,0,1,.55-.22.77.77,0,0,1,.54.22l1.63,1.63a.77.77,0,0,1,.22.54.8.8,0,0,1-.22.55l-.53.53.1.25h.75a.78.78,0,0,1,.78.77V12.1ZM15,12.1v-.75h-.54a.77.77,0,0,1-.74-.58,4,4,0,0,0-.41-1,.76.76,0,0,1,.12-.93l.38-.39-.53-.53-.38.38a.76.76,0,0,1-.94.12A3.55,3.55,0,0,0,11,8a.78.78,0,0,1-.58-.75V6.75H9.62v.54A.78.78,0,0,1,9,8a3.55,3.55,0,0,0-1,.4.76.76,0,0,1-.94-.12l-.38-.38-.54.53.39.39a.76.76,0,0,1,.12.93,4,4,0,0,0-.41,1,.77.77,0,0,1-.74.58H5v.75H7a2.34,2.34,0,0,1,0-.38,3.07,3.07,0,1,1,6.14,0,2.34,2.34,0,0,1,0,.38Zm-3.49,0a1.58,1.58,0,0,0,0-.38,1.53,1.53,0,0,0-3.06,0,1.58,1.58,0,0,0,0,.38Z"/></svg>