<svg id="Layer_1" fill="#f7f9fa" data-name="Layer 1" xmlns="http://www.w3.org/2000/svg" viewBox="0 0 20 20"><defs><style>.cls-1{fill="#f7f9fa"}</style></defs><path d="M10,18.56a7,7,0,1,1,7-7A7,7,0,0,1,10,18.56ZM10,6.29a5.28,5.28,0,1,0,5.28,5.28A5.29,5.29,0,0,0,10,6.29Z"/><path d="M10,15a3.44,3.44,0,1,1,3.44-3.44A3.45,3.45,0,0,1,10,15Zm0-5.67a2.23,2.23,0,1,0,2.23,2.23A2.23,2.23,0,0,0,10,9.34Z"/><circle cx="10" cy="11.57" r="1.41"/><path d="M10,16.27a.48.48,0,1,1,0-1,.48.48,0,1,1,0,1Z"/><path d="M8.57,16.27a.48.48,0,1,1,0-1,.48.48,0,1,1,0,1Z"/><path d="M11.4,16.27a.48.48,0,1,1,.48-.48A.48.48,0,0,1,11.4,16.27Z"/><path class="cls-1" d="M17.32,14.15a8.73,8.73,0,0,0,0-5.16l0-.14.14,0A1.67,1.67,0,0,1,19,10.52V11h.43a.62.62,0,0,1,0,1.24H19v.43a1.67,1.67,0,0,1-1.53,1.65l-.14,0Z"/><path class="cls-1" d="M2.58,14.27a1.67,1.67,0,0,1-1.53-1.65v-.43H.62A.62.62,0,1,1,.62,11h.43v-.43A1.67,1.67,0,0,1,2.58,8.87l.14,0,0,.14a8.73,8.73,0,0,0,0,5.16l0,.14Z"/><path class="cls-1" d="M7.05,5.73a.46.46,0,0,1-.4-.24L4.77,2.24a.46.46,0,0,1,0-.36.44.44,0,0,1,.22-.28l.21-.13.18,0a.49.49,0,0,1,.42.23L7.62,4.93a.47.47,0,0,1-.16.64l-.22.12-.18,0Z"/><path class="cls-1" d="M12.89,5.73l-.16-.06-.18-.1a.48.48,0,0,1-.18-.64l1.89-3.26a.46.46,0,0,1,.4-.23l.22.05.18.11a.47.47,0,0,1,.17.64L13.35,5.49a.46.46,0,0,1-.4.24Z"/></svg>